<svg width="30" height="30" viewBox="0 0 30 30" fill="none" xmlns="http://www.w3.org/2000/svg">
<path d="M13.8607 24.298L13.8592 24.2967C10.6208 21.3601 8.01343 18.9903 6.20395 16.7765C4.40546 14.5762 3.5 12.6525 3.5 10.625C3.5 7.31598 6.07609 4.75 9.375 4.75C11.2477 4.75 13.0616 5.62696 14.2412 7.00128L15 7.88543L15.7588 7.00128C16.9384 5.62696 18.7523 4.75 20.625 4.75C23.9239 4.75 26.5 7.31598 26.5 10.625C26.5 12.6525 25.5945 14.5762 23.7961 16.7765C21.9866 18.9903 19.3792 21.3601 16.1408 24.2967L16.1393 24.298L15 25.3352L13.8607 24.298Z" stroke="#FF6300" stroke-width="2"/>
</svg>
