<svg width="21" height="21" viewBox="0 0 21 21" fill="none" xmlns="http://www.w3.org/2000/svg">
<path d="M7.23358 5.7629L7.71843 5.7482V5.26312V4.375C7.71843 3.63737 8.01146 2.92994 8.53304 2.40836C9.05463 1.88677 9.76205 1.59375 10.4997 1.59375C11.2373 1.59375 11.9447 1.88677 12.4663 2.40836C12.9879 2.92994 13.2809 3.63737 13.2809 4.375V5.26312V5.7482L13.7658 5.7629C14.8898 5.79696 15.4201 5.92143 15.8029 6.23923C16.0663 6.45805 16.2566 6.76593 16.4281 7.30415C16.6038 7.85557 16.7421 8.58783 16.9365 9.62441L17.5927 13.1244C17.5927 13.1244 17.5927 13.1244 17.5927 13.1244C17.8655 14.5797 18.0589 15.6184 18.0935 16.4131C18.1275 17.1941 18.0022 17.6446 17.7221 17.9823C17.4416 18.32 17.0219 18.5261 16.2481 18.6364C15.4606 18.7488 14.404 18.75 12.9234 18.75H8.07593C6.5949 18.75 5.53833 18.7488 4.7509 18.6364C3.97716 18.5261 3.55759 18.3199 3.27713 17.9821C2.99683 17.6445 2.87167 17.1943 2.90589 16.4133C2.94072 15.6185 3.13429 14.5798 3.40665 13.1242L4.06282 9.62465C4.06284 9.62457 4.06285 9.6245 4.06286 9.62442C4.06287 9.62441 4.06287 9.6244 4.06287 9.62439C4.25771 8.58822 4.39603 7.85601 4.57167 7.30438C4.74312 6.76587 4.93317 6.45793 5.19643 6.23923C5.57926 5.92143 6.10954 5.79696 7.23358 5.7629ZM12.4684 5.75H12.9684V5.25V4.375C12.9684 3.72025 12.7083 3.09231 12.2454 2.62933C11.7824 2.16635 11.1544 1.90625 10.4997 1.90625C9.84493 1.90625 9.21699 2.16635 8.75401 2.62933C8.29103 3.09231 8.03093 3.72025 8.03093 4.375V5.25V5.75H8.53093H12.4684Z" stroke="#FF6300"/>
</svg>
