<svg width="38" height="38" viewBox="0 0 38 38" fill="none" xmlns="http://www.w3.org/2000/svg">
<path fill-rule="evenodd" clip-rule="evenodd" d="M19 23.1665C19 21.5089 19.6585 19.9192 20.8306 18.7471C22.0027 17.575 23.5924 16.9165 25.25 16.9165H33.5833C34.6884 16.9165 35.7482 17.3555 36.5296 18.1369C37.311 18.9183 37.75 19.9781 37.75 21.0832V25.2498C37.75 26.3549 37.311 27.4147 36.5296 28.1961C35.7482 28.9775 34.6884 29.4165 33.5833 29.4165H25.25C23.5924 29.4165 22.0027 28.758 20.8306 27.5859C19.6585 26.4138 19 24.8241 19 23.1665ZM25.25 21.0832C24.6975 21.0832 24.1676 21.3027 23.7769 21.6934C23.3862 22.0841 23.1667 22.614 23.1667 23.1665C23.1667 23.719 23.3862 24.2489 23.7769 24.6396C24.1676 25.0303 24.6975 25.2498 25.25 25.2498H33.5833V21.0832H25.25Z" fill="#FF6300"/>
<path fill-rule="evenodd" clip-rule="evenodd" d="M19.6104 0.86046C20.0011 0.469895 20.5309 0.250488 21.0833 0.250488C21.6358 0.250488 22.1656 0.469895 22.5562 0.86046L28.1958 6.50004H22.3042L19.6104 3.80629C19.2199 3.41561 19.0004 2.8858 19.0004 2.33338C19.0004 1.78095 19.2199 1.25114 19.6104 0.86046ZM19.8625 6.50004L14.2229 0.86046C13.8322 0.469895 13.3024 0.250488 12.75 0.250488C12.1976 0.250488 11.6678 0.469895 11.2771 0.86046L5.6375 6.50004H19.8625ZM3.55417 8.58338L3.4375 8.69796C2.52856 8.91772 1.71996 9.43684 1.1418 10.1718C0.56364 10.9068 0.249529 11.8149 0.250001 12.75V33.5834C0.250001 34.6884 0.688987 35.7483 1.47039 36.5297C2.25179 37.3111 3.3116 37.75 4.41667 37.75H29.4167C30.5217 37.75 31.5815 37.3111 32.3629 36.5297C33.1443 35.7483 33.5833 34.6884 33.5833 33.5834H25.25C22.4873 33.5834 19.8378 32.4859 17.8843 30.5324C15.9308 28.5789 14.8333 25.9294 14.8333 23.1667C14.8333 20.404 15.9308 17.7545 17.8843 15.801C19.8378 13.8475 22.4873 12.75 25.25 12.75H33.5833C33.5838 11.8149 33.2697 10.9068 32.6915 10.1718C32.1134 9.43684 31.3048 8.91772 30.3958 8.69796L30.2792 8.58338H3.55417Z" fill="#FF6300"/>
</svg>
