<svg width="30" height="30" viewBox="0 0 30 30" fill="none" xmlns="http://www.w3.org/2000/svg">
<path fill-rule="evenodd" clip-rule="evenodd" d="M10.3126 7.51875V6.25C10.3126 5.0068 10.8065 3.81451 11.6855 2.93544C12.5646 2.05636 13.7569 1.5625 15.0001 1.5625C16.2433 1.5625 17.4356 2.05636 18.3147 2.93544C19.1937 3.81451 19.6876 5.0068 19.6876 6.25V7.51875C21.2964 7.5675 22.2814 7.74 23.0326 8.36375C24.0739 9.22875 24.3489 10.6913 24.8976 13.6175L25.8351 18.6175C26.6064 22.7325 26.9914 24.79 25.8676 26.145C24.7426 27.5 22.6489 27.5 18.4626 27.5H11.5376C7.35011 27.5 5.25761 27.5 4.13261 26.145C3.00761 24.79 3.39511 22.7325 4.16511 18.6175L5.10261 13.6175C5.65261 10.6925 5.92636 9.22875 6.96761 8.36375C7.71886 7.74 8.70386 7.5675 10.3126 7.51875ZM12.1876 6.25C12.1876 5.50408 12.4839 4.78871 13.0114 4.26126C13.5388 3.73382 14.2542 3.4375 15.0001 3.4375C15.746 3.4375 16.4614 3.73382 16.9888 4.26126C17.5163 4.78871 17.8126 5.50408 17.8126 6.25V7.5H12.1876V6.25Z" fill="#09371C"/>
<circle cx="7.79961" cy="8.99981" r="4.2" fill="#FF0000"/>
</svg>
